<svg width="375" height="309" viewBox="0 0 375 309" fill="none" xmlns="http://www.w3.org/2000/svg">
<g filter="url(#filter0_f_1_955)">
<rect x="41.8965" y="97.4487" width="242" height="75" rx="22" transform="rotate(9.54802 41.8965 97.4487)" fill="#010B17"/>
</g>
<rect x="24" y="77" width="327" height="75" rx="22" fill="white"/>
<path d="M130.606 113.805L118.115 127.424C118.116 127.427 118.116 127.43 118.118 127.433C118.501 128.912 119.815 130 121.376 130C122 130 122.585 129.826 123.087 129.523L123.127 129.499L137.187 121.164L130.606 113.805Z" fill="#EA4335"/>
<path d="M143.243 111.486L143.231 111.477L137.161 107.862L130.322 114.114L137.185 121.163L143.223 117.584C144.281 116.996 145 115.85 145 114.529C145 113.215 144.291 112.075 143.243 111.486Z" fill="#FBBC04"/>
<path d="M118.115 101.575C118.04 101.859 118 102.158 118 102.466V126.533C118 126.842 118.04 127.141 118.116 127.424L131.035 114.153L118.115 101.575Z" fill="#4285F4"/>
<path d="M130.699 114.5L137.163 107.86L123.12 99.4955C122.609 99.1809 122.014 99.0001 121.376 99.0001C119.816 99.0001 118.5 100.091 118.116 101.571C118.116 101.572 118.115 101.573 118.115 101.575L130.699 114.5Z" fill="#34A853"/>
<path d="M234.504 128.974H236.728V113.557H234.504V128.974ZM254.528 119.11L251.98 125.794H251.903L249.258 119.11H246.864L250.83 128.452L248.57 133.649H250.887L257 119.11H254.528ZM241.921 127.222C241.192 127.222 240.177 126.846 240.177 125.913C240.177 124.724 241.441 124.268 242.533 124.268C243.51 124.268 243.971 124.486 244.564 124.783C244.392 126.211 243.204 127.222 241.921 127.222ZM242.189 118.774C240.579 118.774 238.911 119.508 238.223 121.134L240.196 121.986C240.617 121.134 241.403 120.855 242.227 120.855C243.377 120.855 244.545 121.569 244.564 122.84V122.997C244.162 122.759 243.3 122.403 242.246 122.403C240.119 122.403 237.953 123.613 237.953 125.873C237.953 127.936 239.698 129.266 241.652 129.266C243.147 129.266 243.971 128.571 244.488 127.758H244.564V128.948H246.71V123.037C246.71 120.3 244.737 118.774 242.189 118.774ZM228.45 120.987H225.288V115.703H228.45C230.112 115.703 231.055 117.127 231.055 118.345C231.055 119.54 230.112 120.987 228.45 120.987ZM228.393 113.557H223.066V128.974H225.288V123.133H228.393C230.856 123.133 233.279 121.286 233.279 118.345C233.279 115.403 230.856 113.557 228.393 113.557ZM199.346 127.225C197.81 127.225 196.525 125.894 196.525 124.067C196.525 122.219 197.81 120.868 199.346 120.868C200.862 120.868 202.051 122.219 202.051 124.067C202.051 125.894 200.862 127.225 199.346 127.225ZM201.899 119.974H201.821C201.322 119.358 200.363 118.802 199.154 118.802C196.62 118.802 194.298 121.106 194.298 124.067C194.298 127.007 196.62 129.292 199.154 129.292C200.363 129.292 201.322 128.736 201.821 128.099H201.899V128.855C201.899 130.862 200.862 131.934 199.192 131.934C197.829 131.934 196.984 130.921 196.639 130.066L194.701 130.901C195.257 132.292 196.735 134 199.192 134C201.802 134 204.01 132.41 204.01 128.537V119.119H201.899V119.974ZM205.546 128.974H207.772V113.556H205.546V128.974ZM211.053 123.888C210.996 121.862 212.57 120.828 213.702 120.828C214.586 120.828 215.334 121.285 215.583 121.941L211.053 123.888ZM217.963 122.139C217.542 120.968 216.255 118.802 213.626 118.802C211.015 118.802 208.847 120.927 208.847 124.047C208.847 126.987 210.996 129.292 213.875 129.292C216.198 129.292 217.542 127.822 218.098 126.967L216.371 125.775C215.795 126.649 215.008 127.225 213.875 127.225C212.743 127.225 211.936 126.688 211.418 125.637L218.193 122.735L217.963 122.139ZM163.985 120.411V122.636H169.128C168.974 123.888 168.571 124.802 167.958 125.437C167.208 126.212 166.037 127.067 163.985 127.067C160.817 127.067 158.341 124.424 158.341 121.146C158.341 117.867 160.817 115.226 163.985 115.226C165.693 115.226 166.94 115.921 167.861 116.815L169.378 115.246C168.091 113.974 166.384 113 163.985 113C159.647 113 156 116.656 156 121.146C156 125.637 159.647 129.292 163.985 129.292C166.326 129.292 168.091 128.496 169.473 127.007C170.895 125.537 171.335 123.471 171.335 121.801C171.335 121.285 171.297 120.809 171.22 120.411H163.985ZM177.184 127.225C175.648 127.225 174.323 125.914 174.323 124.047C174.323 122.159 175.648 120.868 177.184 120.868C178.718 120.868 180.043 122.159 180.043 124.047C180.043 125.914 178.718 127.225 177.184 127.225ZM177.184 118.802C174.381 118.802 172.097 121.007 172.097 124.047C172.097 127.067 174.381 129.292 177.184 129.292C179.986 129.292 182.27 127.067 182.27 124.047C182.27 121.007 179.986 118.802 177.184 118.802ZM188.279 127.225C186.743 127.225 185.419 125.914 185.419 124.047C185.419 122.159 186.743 120.868 188.279 120.868C189.815 120.868 191.138 122.159 191.138 124.047C191.138 125.914 189.815 127.225 188.279 127.225ZM188.279 118.802C185.477 118.802 183.193 121.007 183.193 124.047C183.193 127.067 185.477 129.292 188.279 129.292C191.081 129.292 193.365 127.067 193.365 124.047C193.365 121.007 191.081 118.802 188.279 118.802Z" fill="black"/>
<path d="M211.731 106.786H210.477V97.2139H212.003L216.746 104.66H216.801L216.746 102.816V97.2139H218V106.786H216.692L211.731 98.9786H211.676L211.731 100.824V106.786Z" fill="black"/>
<path d="M208.997 102C208.997 103.417 208.515 104.602 207.552 105.556C206.58 106.519 205.39 107 203.981 107C202.564 107 201.374 106.519 200.41 105.556C199.447 104.602 198.966 103.417 198.966 102C198.966 100.583 199.447 99.3975 200.41 98.4439C201.374 97.4813 202.564 97 203.981 97C205.399 97 206.589 97.4857 207.552 98.4572C208.515 99.4109 208.997 100.592 208.997 102ZM200.247 102C200.247 103.105 200.601 104.019 201.31 104.741C202.028 105.463 202.918 105.824 203.981 105.824C205.044 105.824 205.93 105.463 206.639 104.741C207.357 104.028 207.716 103.114 207.716 102C207.716 100.886 207.357 99.9724 206.639 99.2594C205.93 98.5374 205.044 98.1765 203.981 98.1765C202.918 98.1765 202.028 98.5374 201.31 99.2594C200.601 99.9813 200.247 100.895 200.247 102Z" fill="black"/>
<path d="M192.68 98.3904V106.786H191.426V98.3904H188.7V97.2139H195.405V98.3904H192.68Z" fill="black"/>
<path d="M187.387 106.786H186.133V97.2139H187.387V106.786Z" fill="black"/>
<path d="M179.104 98.3904V106.786H177.85V98.3904H175.124V97.2139H181.829V98.3904H179.104Z" fill="black"/>
<path d="M174.088 97.2139V98.3904H169.645V101.425H173.652V102.575H169.645V105.61H174.088V106.786H168.391V97.2139H174.088Z" fill="black"/>
<path d="M166.868 102.388C166.868 103.725 166.463 104.79 165.655 105.583C164.746 106.528 163.551 107 162.07 107C160.653 107 159.453 106.519 158.472 105.556C157.491 104.594 157 103.408 157 102C157 100.592 157.491 99.4064 158.472 98.4439C159.453 97.4813 160.653 97 162.07 97C162.788 97 163.465 97.1248 164.101 97.3743C164.737 97.6239 165.259 97.9759 165.668 98.4305L164.769 99.3128C164.469 98.9563 164.078 98.68 163.597 98.484C163.124 98.279 162.615 98.1765 162.07 98.1765C161.007 98.1765 160.107 98.5374 159.371 99.2594C158.645 99.9902 158.281 100.904 158.281 102C158.281 103.096 158.645 104.01 159.371 104.741C160.107 105.463 161.007 105.824 162.07 105.824C163.042 105.824 163.851 105.556 164.496 105.021C165.141 104.487 165.514 103.751 165.614 102.816H162.07V101.666H166.799C166.845 101.915 166.868 102.156 166.868 102.388Z" fill="black"/>
<defs>
<filter id="filter0_f_1_955" x="-67.2031" y="0.789673" width="444.406" height="307.421" filterUnits="userSpaceOnUse" color-interpolation-filters="sRGB">
<feFlood flood-opacity="0" result="BackgroundImageFix"/>
<feBlend mode="normal" in="SourceGraphic" in2="BackgroundImageFix" result="shape"/>
<feGaussianBlur stdDeviation="50" result="effect1_foregroundBlur_1_955"/>
</filter>
</defs>
</svg>
