<svg width="55" height="55" viewBox="0 0 55 55" fill="none" xmlns="http://www.w3.org/2000/svg">
<path d="M10.8211 13.3008C15.8359 12.8837 20.2051 12.3622 27.4194 10.1721V47.5081C27.4194 47.5081 18.2484 42.9193 14.1266 35.0975C10.0048 27.2757 10.8211 13.3008 10.8211 13.3008Z" fill="#07C4FF"/>
<path d="M44.0178 13.3008C39.003 12.8837 34.6338 12.3622 27.4194 10.1721V47.5081C27.4194 47.5081 36.5905 42.9193 40.7123 35.0975C44.8341 27.2757 44.0178 13.3008 44.0178 13.3008Z" fill="#00A0E4"/>
<path fill-rule="evenodd" clip-rule="evenodd" d="M10.756 15.925C10.7742 20.4043 11.2366 28.6972 14.1266 34.042C18.2484 41.6649 27.4194 46.137 27.4194 46.137C27.4194 46.137 36.5905 41.6649 40.7123 34.042C43.6023 28.6972 44.0647 20.4043 44.0829 15.925C44.1006 20.35 43.7294 29.3722 40.7123 35.0975C36.5905 42.9193 27.4194 47.5081 27.4194 47.5081C27.4194 47.5081 18.2484 42.9193 14.1266 35.0975C11.1095 29.3722 10.7382 20.35 10.756 15.925Z" fill="#003078" fill-opacity="0.3"/>
<path fill-rule="evenodd" clip-rule="evenodd" d="M27.4194 38.8597C27.4194 38.8597 34.064 31.1714 34.064 23.737C34.064 19.9133 31.0892 18.7152 27.4194 18.7152C23.7497 18.7152 20.7749 19.9131 20.7749 23.737C20.7749 31.1714 27.4194 38.8597 27.4194 38.8597ZM30.6905 25.6285C30.6905 27.5669 29.2031 29.1383 27.3682 29.1383C25.5334 29.1383 24.046 27.5669 24.046 25.6285C24.046 23.6901 25.5334 22.1187 27.3682 22.1187C29.2031 22.1187 30.6905 23.6901 30.6905 25.6285Z" fill="#003078" fill-opacity="0.3"/>
<path fill-rule="evenodd" clip-rule="evenodd" d="M27.4194 36.2766C27.4194 36.2766 34.064 27.8053 34.064 24.1207C34.064 20.4364 31.0892 17.4495 27.4194 17.4495C23.7497 17.4495 20.7749 20.4362 20.7749 24.1207C20.7749 27.8053 27.4194 36.2766 27.4194 36.2766ZM30.6905 24.111C30.6905 25.9788 29.2031 27.4929 27.3682 27.4929C25.5334 27.4929 24.046 25.9788 24.046 24.111C24.046 22.2431 25.5334 20.729 27.3682 20.729C29.2031 20.729 30.6905 22.2431 30.6905 24.111Z" fill="white"/>
</svg>
