<svg width="30" height="30" viewBox="0 0 30 30" fill="none" xmlns="http://www.w3.org/2000/svg">
<path fill-rule="evenodd" clip-rule="evenodd" d="M6.60311 6.60311C8.8301 4.37611 11.8506 3.125 15 3.125C18.1494 3.125 21.1699 4.37611 23.3969 6.60311C25.6239 8.8301 26.875 11.8506 26.875 15C26.875 18.1494 25.6239 21.1699 23.3969 23.3969C21.1699 25.6239 18.1494 26.875 15 26.875C11.8506 26.875 8.8301 25.6239 6.60311 23.3969C4.37611 21.1699 3.125 18.1494 3.125 15C3.125 11.8506 4.37611 8.8301 6.60311 6.60311ZM19.6806 18.1475H16.6075V26.7537C16.0806 26.825 15.5469 26.875 15 26.875C14.395 26.875 13.8056 26.8156 13.2238 26.7281V18.1475H10.2856V15.0256H13.2238V12.9487C13.2238 9.50999 14.8994 8.00061 17.7575 8.00061C19.1022 8.00061 19.825 8.09834 20.1747 8.14562L20.1931 8.14811V10.8725H18.2438C17.0306 10.8725 16.6069 12.0225 16.6069 13.3194V15.0256H20.1631L19.6806 18.1475Z" fill="#DAA640"/>
</svg>
