<svg width="30" height="30" viewBox="0 0 30 30" fill="none" xmlns="http://www.w3.org/2000/svg">
<path fill-rule="evenodd" clip-rule="evenodd" d="M27.5 15C27.5 21.9036 21.9036 27.5 15 27.5C8.09644 27.5 2.5 21.9036 2.5 15C2.5 8.09644 8.09644 2.5 15 2.5C21.9036 2.5 27.5 8.09644 27.5 15ZM7.01807 14.6996C7.01807 10.7568 9.88248 7.13513 15.2777 7.13513C19.6142 7.13513 22.9839 10.2245 22.9839 14.3548C22.9839 18.663 20.2671 22.1298 16.4974 22.1298C15.2305 22.1298 14.0402 21.4717 13.6329 20.6942C13.6329 20.6942 13.006 23.0808 12.8536 23.6659C12.5715 24.7513 11.8102 26.1124 11.2996 26.9423C11.0081 26.8521 10.7261 26.7415 10.4441 26.631C10.3354 25.6424 10.2375 24.1303 10.4887 23.0539C10.7157 22.0789 11.9546 16.8404 11.9546 16.8404C11.9546 16.8404 11.5806 16.0914 11.5806 14.9851C11.5806 13.2467 12.5878 11.9495 13.8421 11.9495C14.9089 11.9495 15.4233 12.7505 15.4233 13.7101C15.4233 14.3962 15.1445 15.2987 14.8511 16.2487C14.6855 16.7847 14.5152 17.3358 14.3878 17.8717C14.0931 19.1164 15.0118 20.1313 16.2387 20.1313C18.4604 20.1313 20.1681 17.7885 20.1681 14.4072C20.1681 11.4145 18.0181 9.32168 14.9474 9.32168C11.3911 9.32168 9.30364 11.9894 9.30364 14.7467C9.30364 15.8207 9.71708 16.9726 10.2339 17.5995C10.3359 17.7236 10.3507 17.8318 10.3204 17.9577C10.263 18.1971 10.163 18.6034 10.0838 18.9251C10.0324 19.1339 9.98981 19.307 9.97335 19.3755C9.91903 19.6048 9.79208 19.6525 9.55556 19.5423C7.99402 18.8154 7.01807 16.5332 7.01807 14.6996Z" fill="#DAA640"/>
</svg>
