<svg width="26" height="20" viewBox="0 0 26 20" fill="none" xmlns="http://www.w3.org/2000/svg">
<path fill-rule="evenodd" clip-rule="evenodd" d="M22.375 18.6875C23.6875 18.5 24.75 17.5 25 16.1875C25.25 14.75 25.5 12.625 25.5625 10C25.5625 7.375 25.25 5.25 25 3.8125C24.75 2.5 23.6875 1.5 22.375 1.3125C20.25 1 16.875 0.625 13 0.625C9.125 0.625 5.6875 1 3.625 1.3125C2.3125 1.5 1.25 2.5 1 3.8125C0.75 5.25 0.5 7.375 0.5 10C0.5 12.625 0.75 14.75 1 16.1875C1.25 17.5 2.3125 18.5 3.625 18.6875C5.75 19 9.1875 19.375 13 19.375C16.875 19.375 20.3125 19 22.375 18.6875ZM18 10L10.5 5.625V14.375L18 10Z" fill="#DAA640"/>
</svg>
