<svg width="60" height="60" viewBox="0 0 60 60" fill="none" xmlns="http://www.w3.org/2000/svg">
<circle cx="30" cy="30" r="23.4643" stroke="#07C4FF" stroke-width="2.57143"/>
<path d="M12.75 45.375C13 42.25 13.725 35.625 14.625 34.125C15.75 32.25 15 26.25 13.5 25.5C12.3 24.9 9.5 21.5 8.25 19.875M33.375 39C33.375 39.268 33.4997 39.5534 33.7073 39.8421C35.2824 42.0326 38.4682 41.4036 39.6097 38.9591C40.7809 36.451 41.625 33.4594 41.625 33C41.625 32.25 41.625 30.75 42.375 28.5C42.6794 27.5869 43.254 27.0855 43.8443 26.8294C44.7884 26.4199 45.8875 26.4713 46.8732 26.1756L48.5021 25.6869C48.9054 25.5659 49.3378 25.5852 49.7288 25.7415V25.7415C51.0924 26.287 52.5212 25.1129 52.2505 23.6695L51.8921 21.7579C51.799 21.2611 51.5789 20.7969 51.2533 20.4102L47.0214 15.3848C46.1847 14.3913 45.1342 13.5994 43.9432 13.0812C42.7781 12.5742 41.4251 11.995 40.5 11.6249C38.625 10.8749 32.25 11.6249 30.75 11.6249V11.6249C27.9849 11.6249 30.618 16.3371 33.375 16.125V16.125C38.25 15.75 41.25 19.125 42.375 19.875C43.5 20.625 42.75 21.75 41.625 21.75C41.2069 21.75 40.1253 21.2645 38.8989 20.6318C36.4891 19.3885 33.2677 20.8821 30.75 19.875V19.875C28.875 19.125 24.75 21.375 23.625 21.75C22.5 22.125 23.25 25.875 23.625 27C24 28.125 32.25 29.625 33.375 30C34.5 30.375 33.375 37.5 33.375 39Z" stroke="#07C4FF" stroke-width="2.14286"/>
</svg>
