<svg width="60" height="60" viewBox="0 0 60 60" fill="none" xmlns="http://www.w3.org/2000/svg">
<path d="M47.3199 25V35M34.3299 47.5L38.6599 45L42.9899 42.5M25.6699 47.5L21.3387 45L17.0087 42.5M12.6799 25V35M17.0087 17.5L21.3399 15L25.6699 12.5M34.3299 12.5L38.6599 15L42.9899 17.5" stroke="#07C4FF" stroke-width="2.57143" stroke-linecap="round" stroke-linejoin="round"/>
<path d="M30 55C31.3261 55 32.5979 54.4732 33.5355 53.5355C34.4732 52.5979 35 51.3261 35 50C35 48.6739 34.4732 47.4021 33.5355 46.4645C32.5979 45.5268 31.3261 45 30 45C28.6739 45 27.4021 45.5268 26.4645 46.4645C25.5268 47.4021 25 48.6739 25 50C25 51.3261 25.5268 52.5979 26.4645 53.5355C27.4021 54.4732 28.6739 55 30 55ZM30 15C31.3261 15 32.5979 14.4732 33.5355 13.5355C34.4732 12.5979 35 11.3261 35 10C35 8.67392 34.4732 7.40215 33.5355 6.46447C32.5979 5.52678 31.3261 5 30 5C28.6739 5 27.4021 5.52678 26.4645 6.46447C25.5268 7.40215 25 8.67392 25 10C25 11.3261 25.5268 12.5979 26.4645 13.5355C27.4021 14.4732 28.6739 15 30 15ZM30 35C31.3261 35 32.5979 34.4732 33.5355 33.5355C34.4732 32.5979 35 31.3261 35 30C35 28.6739 34.4732 27.4021 33.5355 26.4645C32.5979 25.5268 31.3261 25 30 25C28.6739 25 27.4021 25.5268 26.4645 26.4645C25.5268 27.4021 25 28.6739 25 30C25 31.3261 25.5268 32.5979 26.4645 33.5355C27.4021 34.4732 28.6739 35 30 35ZM47.5 25C48.8261 25 50.0979 24.4732 51.0355 23.5355C51.9732 22.5979 52.5 21.3261 52.5 20C52.5 18.6739 51.9732 17.4021 51.0355 16.4645C50.0979 15.5268 48.8261 15 47.5 15C46.1739 15 44.9021 15.5268 43.9645 16.4645C43.0268 17.4021 42.5 18.6739 42.5 20C42.5 21.3261 43.0268 22.5979 43.9645 23.5355C44.9021 24.4732 46.1739 25 47.5 25ZM47.5 45C48.8261 45 50.0979 44.4732 51.0355 43.5355C51.9732 42.5979 52.5 41.3261 52.5 40C52.5 38.6739 51.9732 37.4021 51.0355 36.4645C50.0979 35.5268 48.8261 35 47.5 35C46.1739 35 44.9021 35.5268 43.9645 36.4645C43.0268 37.4021 42.5 38.6739 42.5 40C42.5 41.3261 43.0268 42.5979 43.9645 43.5355C44.9021 44.4732 46.1739 45 47.5 45ZM12.5 25C13.8261 25 15.0979 24.4732 16.0355 23.5355C16.9732 22.5979 17.5 21.3261 17.5 20C17.5 18.6739 16.9732 17.4021 16.0355 16.4645C15.0979 15.5268 13.8261 15 12.5 15C11.1739 15 9.90215 15.5268 8.96447 16.4645C8.02678 17.4021 7.5 18.6739 7.5 20C7.5 21.3261 8.02678 22.5979 8.96447 23.5355C9.90215 24.4732 11.1739 25 12.5 25ZM12.5 45C13.8261 45 15.0979 44.4732 16.0355 43.5355C16.9732 42.5979 17.5 41.3261 17.5 40C17.5 38.6739 16.9732 37.4021 16.0355 36.4645C15.0979 35.5268 13.8261 35 12.5 35C11.1739 35 9.90215 35.5268 8.96447 36.4645C8.02678 37.4021 7.5 38.6739 7.5 40C7.5 41.3261 8.02678 42.5979 8.96447 43.5355C9.90215 44.4732 11.1739 45 12.5 45Z" stroke="#07C4FF" stroke-width="2.57143" stroke-linecap="round" stroke-linejoin="round"/>
</svg>
